<svg width="118" height="35" viewBox="0 0 118 35" fill="none" xmlns="http://www.w3.org/2000/svg">
  <path d="M3.659 1.313 2.679 7h-.466l.985-5.688h.46Zm1.89 0-.066.414H1.237l.07-.415H5.55ZM6.846 1 5.807 7H5.35l1.04-6h.456Zm-.722 3.625-.184-.117c.052-.23.132-.452.238-.668.107-.219.24-.414.399-.586.161-.175.346-.311.554-.41.211-.102.446-.151.704-.149.231.003.423.046.574.13a.86.86 0 0 1 .355.34c.084.142.136.308.157.495.023.185.02.382-.008.59L8.448 7h-.461l.473-2.758c.028-.203.027-.39-.004-.562a.688.688 0 0 0-.22-.418c-.116-.107-.292-.16-.526-.16a1.22 1.22 0 0 0-.575.128c-.174.086-.33.204-.468.352-.136.146-.25.31-.344.492-.091.18-.158.364-.2.551Zm4.726-1.852L10.12 7h-.457l.73-4.227h.457Zm-.324-1.218a.323.323 0 0 1 .098-.227.309.309 0 0 1 .226-.094.277.277 0 0 1 .223.09c.06.063.086.138.078.227a.312.312 0 0 1-.102.222.324.324 0 0 1-.226.09.284.284 0 0 1-.297-.309Zm3.492 4.355c.031-.187-.001-.338-.098-.453a.923.923 0 0 0-.378-.27 3.133 3.133 0 0 0-.457-.152 5.7 5.7 0 0 1-.473-.14 1.977 1.977 0 0 1-.426-.215.93.93 0 0 1-.297-.332.855.855 0 0 1-.078-.489c.018-.195.077-.366.176-.511.101-.146.228-.267.379-.364.154-.099.319-.171.496-.218.18-.047.358-.07.535-.07.258.002.492.051.703.148.214.096.38.238.5.426.123.184.175.415.157.69l-.454-.003a.707.707 0 0 0-.101-.465.755.755 0 0 0-.34-.289 1.141 1.141 0 0 0-.477-.105 1.57 1.57 0 0 0-.484.078 1.101 1.101 0 0 0-.414.242.724.724 0 0 0-.219.426.521.521 0 0 0 .043.347.63.63 0 0 0 .23.223c.102.057.212.104.329.14.117.037.228.07.332.098.213.058.423.132.629.223.205.091.37.217.492.379.125.159.174.368.148.629a1.1 1.1 0 0 1-.183.539 1.323 1.323 0 0 1-.395.375 1.787 1.787 0 0 1-.52.21 2.235 2.235 0 0 1-.558.071 1.954 1.954 0 0 1-.726-.144 1.263 1.263 0 0 1-.547-.422c-.138-.188-.198-.422-.18-.703l.457.003a.783.783 0 0 0 .129.489.794.794 0 0 0 .367.281c.156.06.326.091.508.094.164 0 .332-.026.504-.078.172-.052.321-.134.449-.246a.73.73 0 0 0 .242-.442Zm4.23-2.305-.867 5.02h-.46l1.011-5.852h.43l-.113.832Zm2.633 1.23-.011.083a4.03 4.03 0 0 1-.2.758c-.09.255-.213.49-.367.703a1.83 1.83 0 0 1-.562.516 1.447 1.447 0 0 1-.77.183c-.218 0-.418-.042-.597-.125a1.376 1.376 0 0 1-.457-.348 1.508 1.508 0 0 1-.282-.511 1.648 1.648 0 0 1-.074-.614l.172-1.078c.052-.226.134-.442.246-.648.112-.206.25-.39.414-.55.167-.162.354-.287.563-.376a1.65 1.65 0 0 1 .68-.133c.291.003.527.07.706.203.18.133.314.306.403.52.088.214.14.445.156.695a3.47 3.47 0 0 1-.02.723Zm-.472.083.012-.086c.026-.177.036-.365.03-.562a1.872 1.872 0 0 0-.097-.563.928.928 0 0 0-.285-.43c-.133-.114-.316-.173-.55-.175a1.321 1.321 0 0 0-.512.093 1.62 1.62 0 0 0-.446.262 1.797 1.797 0 0 0-.351.39 1.622 1.622 0 0 0-.211.477l-.22 1.254a1 1 0 0 0 .142.567 1.124 1.124 0 0 0 .964.535c.24.002.447-.048.621-.153.178-.106.326-.247.446-.422a2.44 2.44 0 0 0 .293-.574 3.58 3.58 0 0 0 .164-.613Zm2.168-1.43L21.97 7h-.457l.73-4.227h.446l-.113.715Zm1.566-.746-.058.426a2.435 2.435 0 0 0-.145-.02 1.418 1.418 0 0 0-.148-.007 1.223 1.223 0 0 0-.563.117c-.161.08-.303.19-.426.328-.12.138-.22.294-.3.469a2.79 2.79 0 0 0-.188.53l-.184.067c.04-.226.098-.455.176-.687.081-.232.188-.444.32-.637a1.62 1.62 0 0 1 .497-.469 1.304 1.304 0 0 1 .863-.152c.052.008.104.02.156.035Zm.012 2.223.02-.13c.038-.275.114-.542.226-.8s.258-.487.438-.687c.182-.203.395-.364.64-.48.245-.118.517-.175.817-.173.296.003.549.065.757.188.209.12.375.281.5.484.128.203.215.431.262.684.047.25.055.506.023.77l-.015.128c-.04.276-.116.542-.23.797a2.62 2.62 0 0 1-.442.688c-.18.2-.392.359-.637.476-.244.115-.517.17-.816.168a1.539 1.539 0 0 1-.758-.183 1.437 1.437 0 0 1-.5-.485 1.98 1.98 0 0 1-.258-.68 2.594 2.594 0 0 1-.027-.765Zm.476-.13-.015.13a2.386 2.386 0 0 0-.004.594c.023.2.077.385.16.554.086.167.206.302.36.407.153.104.346.157.578.16.237.002.45-.046.64-.145a1.59 1.59 0 0 0 .492-.398c.141-.17.254-.357.34-.563.086-.208.146-.416.18-.625l.016-.129a2.24 2.24 0 0 0 0-.59 1.696 1.696 0 0 0-.16-.558 1.043 1.043 0 0 0-.356-.41 1.01 1.01 0 0 0-.578-.164 1.276 1.276 0 0 0-.64.144c-.19.1-.355.233-.493.403a2.352 2.352 0 0 0-.34.566 2.741 2.741 0 0 0-.18.625Zm4.532-2.062h.46l-.808 4.73c-.036.23-.107.436-.21.618-.102.185-.24.33-.415.434a1.174 1.174 0 0 1-.637.156.935.935 0 0 1-.21-.024 2.403 2.403 0 0 1-.212-.05l.051-.39a1.786 1.786 0 0 0 .336.058.756.756 0 0 0 .688-.399c.067-.12.116-.254.144-.402l.813-4.73Zm.136-1.218a.323.323 0 0 1 .098-.227.309.309 0 0 1 .227-.094.277.277 0 0 1 .222.09.296.296 0 0 1 .078.227.327.327 0 0 1-.105.222.31.31 0 0 1-.223.09.29.29 0 0 1-.222-.086.272.272 0 0 1-.075-.222Zm2.524 5.523a1.519 1.519 0 0 1-.742-.18 1.463 1.463 0 0 1-.508-.468 1.97 1.97 0 0 1-.27-.664 2.43 2.43 0 0 1-.03-.754l.023-.172a2.91 2.91 0 0 1 .64-1.465c.177-.208.384-.374.621-.496.237-.125.5-.186.79-.184.273.003.502.06.687.172.187.11.336.257.445.442.11.184.181.392.215.62.036.23.04.464.012.704l-.04.285h-3.109l.059-.398h2.64l.012-.055a1.532 1.532 0 0 0-.035-.645 1.036 1.036 0 0 0-.305-.515c-.148-.136-.347-.205-.597-.207a1.183 1.183 0 0 0-.625.148c-.183.102-.34.24-.473.414a2.34 2.34 0 0 0-.316.57 2.87 2.87 0 0 0-.168.61l-.02.168c-.026.195-.025.39.004.586.031.195.091.375.18.539.09.161.213.293.367.394.156.1.346.15.57.153.25.005.475-.045.676-.149a2.2 2.2 0 0 0 .559-.422l.273.227a1.94 1.94 0 0 1-.43.41 1.741 1.741 0 0 1-.52.25 2.082 2.082 0 0 1-.585.082Zm3.957-.398c.208 0 .4-.04.578-.121a1.26 1.26 0 0 0 .45-.344c.124-.149.214-.322.269-.52h.441a1.584 1.584 0 0 1-.336.727 1.788 1.788 0 0 1-1.414.656c-.297-.002-.545-.065-.746-.187a1.337 1.337 0 0 1-.473-.485 1.997 1.997 0 0 1-.23-.676 2.731 2.731 0 0 1-.004-.757l.02-.164a3.16 3.16 0 0 1 .21-.786c.105-.255.241-.483.41-.683.173-.2.377-.358.614-.473.237-.117.504-.174.8-.172.295.003.548.07.759.203.21.13.37.309.48.536.112.224.163.479.152.765l-.433-.004a1.224 1.224 0 0 0-.098-.55.855.855 0 0 0-.328-.395 1.002 1.002 0 0 0-.543-.156 1.284 1.284 0 0 0-.637.144c-.18.097-.333.228-.46.395a2.22 2.22 0 0 0-.31.554 2.92 2.92 0 0 0-.163.622l-.024.164a3.16 3.16 0 0 0-.015.59c.015.197.058.381.129.55a.965.965 0 0 0 .328.407c.145.101.337.154.574.16Zm4.691-3.907-.062.383h-2.063l.067-.383h2.058Zm-1.117-1.086h.457l-.734 4.29c-.016.112-.02.22-.012.324a.45.45 0 0 0 .105.258c.06.065.158.099.294.101.065 0 .128-.004.19-.012.066-.01.13-.02.192-.027l-.02.399a1.48 1.48 0 0 1-.234.043c-.078.01-.157.014-.238.011-.219-.002-.384-.056-.496-.16a.739.739 0 0 1-.219-.406 1.614 1.614 0 0 1-.011-.54l.726-4.28Zm4.504 1.086L43.128 7h-.458l.731-4.227h.457Zm-.324-1.218a.323.323 0 0 1 .098-.227.309.309 0 0 1 .226-.094.277.277 0 0 1 .223.09c.06.063.086.138.078.227a.312.312 0 0 1-.102.222.325.325 0 0 1-.226.09.284.284 0 0 1-.297-.309Zm3.492 4.355c.031-.187-.001-.338-.098-.453a.923.923 0 0 0-.379-.27 3.133 3.133 0 0 0-.457-.152 5.697 5.697 0 0 1-.472-.14 1.976 1.976 0 0 1-.426-.215.93.93 0 0 1-.297-.332.855.855 0 0 1-.078-.489c.018-.195.077-.366.176-.511.101-.146.228-.267.379-.364a1.72 1.72 0 0 1 .496-.218c.18-.047.358-.07.535-.07.258.002.492.051.703.148.214.096.38.238.5.426.122.184.175.415.156.69l-.453-.003a.708.708 0 0 0-.101-.465.756.756 0 0 0-.34-.289 1.142 1.142 0 0 0-.477-.105 1.57 1.57 0 0 0-.484.078 1.1 1.1 0 0 0-.414.242.723.723 0 0 0-.219.426.521.521 0 0 0 .043.347.632.632 0 0 0 .23.223c.102.057.211.104.329.14.117.037.227.07.332.098.213.058.423.132.629.223.205.091.37.217.492.379.125.159.174.368.148.629a1.1 1.1 0 0 1-.184.539 1.322 1.322 0 0 1-.394.375 1.787 1.787 0 0 1-.52.21 2.235 2.235 0 0 1-.558.071 1.954 1.954 0 0 1-.727-.144 1.264 1.264 0 0 1-.547-.422c-.138-.188-.197-.422-.18-.703l.458.003a.783.783 0 0 0 .129.489.794.794 0 0 0 .367.281c.156.06.325.091.508.094.164 0 .332-.026.504-.078.172-.052.321-.134.449-.246a.723.723 0 0 0 .242-.442Zm4.785.77c.209 0 .401-.04.578-.121a1.26 1.26 0 0 0 .45-.344c.125-.149.214-.322.269-.52h.441a1.582 1.582 0 0 1-.335.727 1.789 1.789 0 0 1-1.414.656c-.297-.002-.546-.065-.747-.187a1.337 1.337 0 0 1-.472-.485 1.997 1.997 0 0 1-.23-.676 2.739 2.739 0 0 1-.005-.757l.02-.164c.036-.271.107-.533.21-.786.105-.255.242-.483.41-.683.173-.2.377-.358.614-.473.237-.117.504-.174.801-.172.294.003.547.07.758.203.21.13.37.309.48.536.112.224.163.479.153.765l-.434-.004a1.224 1.224 0 0 0-.098-.55.855.855 0 0 0-.328-.395 1.003 1.003 0 0 0-.543-.156 1.284 1.284 0 0 0-.636.144c-.18.097-.334.228-.461.395-.128.166-.23.351-.309.554-.078.204-.133.41-.164.622l-.024.164a3.212 3.212 0 0 0-.015.59c.015.197.059.381.129.55a.965.965 0 0 0 .328.407c.146.101.337.154.574.16Zm2.516-1.715.02-.13c.038-.275.114-.542.226-.8s.258-.487.437-.687c.183-.203.396-.364.641-.48.245-.118.517-.175.816-.173.297.003.55.065.758.188.209.12.375.281.5.484.128.203.215.431.262.684.047.25.055.506.023.77l-.015.128c-.04.276-.116.542-.23.797a2.62 2.62 0 0 1-.442.688c-.18.2-.392.359-.637.476-.245.115-.517.17-.816.168a1.54 1.54 0 0 1-.758-.183 1.437 1.437 0 0 1-.5-.485 1.981 1.981 0 0 1-.258-.68 2.594 2.594 0 0 1-.027-.765Zm.476-.13-.015.13a2.386 2.386 0 0 0-.004.594c.023.2.077.385.16.554.086.167.206.302.36.407.153.104.346.157.578.16.236.002.45-.046.64-.145a1.59 1.59 0 0 0 .492-.398c.14-.17.254-.357.34-.563.086-.208.146-.416.18-.625l.015-.129a2.24 2.24 0 0 0 0-.59 1.694 1.694 0 0 0-.16-.558 1.043 1.043 0 0 0-.355-.41 1.01 1.01 0 0 0-.578-.164 1.276 1.276 0 0 0-.64.144c-.191.1-.355.233-.493.403a2.34 2.34 0 0 0-.34.566 2.751 2.751 0 0 0-.18.625Zm5.649-.546-.067.402h-1.824l.07-.402h1.82ZM61.526 7h-.457l.8-4.672c.045-.281.135-.527.27-.738.136-.214.313-.38.531-.496.222-.12.478-.18.77-.18.18.003.355.026.527.07.175.042.346.095.512.16l-.113.407a2.382 2.382 0 0 0-.446-.156 1.942 1.942 0 0 0-.464-.055c-.31 0-.563.09-.758.27a1.26 1.26 0 0 0-.371.718L61.526 7Zm1.691-4.227-.066.383h-2.098l.067-.383h2.097Zm1.239 0L63.726 7h-.458l.73-4.227h.458Zm1.539.922L65.425 7h-.458l.73-4.227h.438l-.14.922Zm-.254.93-.184-.117a3.01 3.01 0 0 1 .239-.668c.106-.219.24-.414.398-.586.161-.175.346-.311.555-.41.21-.102.445-.151.703-.149.232.003.423.046.574.13.154.08.272.193.356.34.083.142.135.308.156.495.023.185.02.382-.008.59L68.065 7h-.46l.472-2.758c.028-.203.027-.39-.004-.562a.688.688 0 0 0-.219-.418c-.117-.107-.293-.16-.527-.16-.209-.003-.4.04-.574.128a1.627 1.627 0 0 0-.47.352c-.135.146-.25.31-.343.492a2.42 2.42 0 0 0-.2.551Zm6.125 1.617.363-2.183a.917.917 0 0 0-.055-.516.664.664 0 0 0-.304-.332 1.054 1.054 0 0 0-.512-.121 1.448 1.448 0 0 0-.531.094c-.175.065-.327.16-.457.285a.918.918 0 0 0-.254.469l-.457-.004c.028-.2.099-.378.21-.532a1.48 1.48 0 0 1 .415-.39c.166-.107.346-.186.539-.239a1.98 1.98 0 0 1 .57-.078c.279 0 .521.056.727.168.206.11.36.267.46.473.105.203.139.448.102.734l-.344 2.043a3.655 3.655 0 0 0-.046.422c-.008.14.002.279.03.414L72.32 7h-.477a2.046 2.046 0 0 1-.02-.379c.009-.128.023-.254.044-.379Zm.394-1.703-.05.36h-.864c-.161 0-.332.014-.511.042a2.17 2.17 0 0 0-.516.149 1.2 1.2 0 0 0-.418.293.874.874 0 0 0-.219.469.687.687 0 0 0 .055.43.69.69 0 0 0 .285.28.934.934 0 0 0 .422.102c.23.003.447-.039.652-.125.206-.088.39-.21.551-.367.162-.156.288-.339.379-.547l.16.273c-.07.178-.17.34-.297.489A1.968 1.968 0 0 1 70.94 7a1.973 1.973 0 0 1-.562.082 1.402 1.402 0 0 1-.625-.152 1.042 1.042 0 0 1-.426-.41 1.007 1.007 0 0 1-.114-.625c.03-.256.11-.47.243-.641.135-.175.303-.314.504-.418.2-.104.416-.18.648-.227.232-.046.457-.07.676-.07h.976Zm2.164-.844L73.854 7h-.457l.73-4.227h.438l-.14.922Zm-.254.93-.183-.117a3.01 3.01 0 0 1 .238-.668c.107-.219.24-.414.399-.586.161-.175.346-.311.554-.41.211-.102.446-.151.704-.149.231.003.423.046.574.13a.85.85 0 0 1 .355.34c.083.142.136.308.156.495.024.185.021.382-.007.59L76.495 7h-.461l.472-2.758a1.73 1.73 0 0 0-.003-.562.688.688 0 0 0-.22-.418c-.116-.107-.292-.16-.526-.16a1.22 1.22 0 0 0-.575.128c-.174.086-.33.204-.469.352-.135.146-.25.31-.343.492-.091.18-.158.364-.2.551Zm5.087 2.055c.208 0 .4-.04.578-.121.177-.081.326-.196.449-.344.125-.149.215-.322.27-.52h.44a1.583 1.583 0 0 1-.335.727 1.789 1.789 0 0 1-1.414.656c-.297-.002-.546-.065-.746-.187a1.337 1.337 0 0 1-.473-.485 1.997 1.997 0 0 1-.23-.676 2.739 2.739 0 0 1-.004-.757l.02-.164a3.15 3.15 0 0 1 .21-.786c.104-.255.241-.483.41-.683.172-.2.377-.358.614-.473a1.75 1.75 0 0 1 .8-.172c.295.003.547.07.758.203.211.13.371.309.48.536.113.224.163.479.153.765l-.434-.004a1.222 1.222 0 0 0-.097-.55.855.855 0 0 0-.328-.395 1.003 1.003 0 0 0-.543-.156 1.284 1.284 0 0 0-.637.144c-.18.097-.333.228-.461.395-.128.166-.23.351-.309.554-.078.204-.132.41-.164.622l-.023.164a3.126 3.126 0 0 0-.016.59c.016.197.059.381.13.55a.964.964 0 0 0 .327.407c.146.101.337.154.575.16Zm4.058.398a1.519 1.519 0 0 1-.742-.18 1.462 1.462 0 0 1-.508-.468 1.97 1.97 0 0 1-.27-.664 2.43 2.43 0 0 1-.03-.754l.023-.172a2.91 2.91 0 0 1 .64-1.465c.177-.208.385-.374.621-.496.237-.125.5-.186.79-.184.273.003.502.06.687.172.188.11.336.257.445.442.11.184.181.392.215.62.037.23.04.464.012.704l-.04.285H82.05l.059-.398h2.64l.012-.055a1.532 1.532 0 0 0-.035-.645 1.036 1.036 0 0 0-.304-.515c-.149-.136-.348-.205-.598-.207a1.183 1.183 0 0 0-.625.148 1.54 1.54 0 0 0-.473.414c-.13.172-.235.362-.316.57a2.93 2.93 0 0 0-.168.61l-.02.168a2.13 2.13 0 0 0 .004.586c.032.195.091.375.18.539.091.161.213.293.367.394.156.1.346.15.57.153.25.005.476-.045.676-.149a2.2 2.2 0 0 0 .559-.422l.273.227a1.94 1.94 0 0 1-.43.41 1.741 1.741 0 0 1-.519.25 2.082 2.082 0 0 1-.586.082Zm5.172-.918L89.382 1h.456L88.8 7h-.425l.113-.84Zm-2.633-1.215.012-.082c.039-.255.105-.51.2-.765.093-.258.218-.494.374-.707a1.82 1.82 0 0 1 .567-.512c.223-.128.483-.189.777-.184a1.25 1.25 0 0 1 1.043.531c.117.162.202.344.254.547.054.201.075.41.062.625l-.168 1.043a2.187 2.187 0 0 1-.652 1.16c-.162.152-.346.27-.555.356a1.612 1.612 0 0 1-.664.121c-.284-.002-.516-.071-.695-.207a1.276 1.276 0 0 1-.403-.523 2.222 2.222 0 0 1-.168-.692 3.575 3.575 0 0 1 .016-.71Zm.48-.086-.011.082a3.54 3.54 0 0 0-.035.563c.002.198.031.385.086.562a.927.927 0 0 0 .285.43c.133.112.314.17.543.176a1.47 1.47 0 0 0 .648-.14c.206-.1.386-.235.54-.407.156-.172.265-.366.327-.582l.211-1.219a1.197 1.197 0 0 0-.273-.851 1.046 1.046 0 0 0-.352-.266.999.999 0 0 0-.453-.102 1.13 1.13 0 0 0-.62.153 1.446 1.446 0 0 0-.446.418c-.123.172-.22.362-.293.57-.073.206-.125.41-.156.613ZM92.953 1h.46l-.902 5.2-.168.8h-.43l1.04-6Zm2.644 3.836-.011.082a4.03 4.03 0 0 1-.2.758c-.09.255-.213.49-.367.703a1.832 1.832 0 0 1-.562.516 1.447 1.447 0 0 1-.77.183c-.224 0-.424-.044-.601-.133a1.39 1.39 0 0 1-.45-.363 1.61 1.61 0 0 1-.27-.523 1.796 1.796 0 0 1-.066-.618l.168-1.043c.052-.224.133-.438.243-.644a2.18 2.18 0 0 1 .41-.547c.164-.161.349-.288.554-.379.209-.094.434-.138.676-.133.292.003.528.07.707.203.18.133.313.306.399.52.088.214.142.445.16.695a3.47 3.47 0 0 1-.02.723Zm-.476.082.015-.086c.026-.177.037-.365.032-.562a1.87 1.87 0 0 0-.09-.563.9.9 0 0 0-.281-.434c-.13-.112-.313-.169-.547-.171a1.333 1.333 0 0 0-.516.093c-.161.063-.31.15-.445.262a1.762 1.762 0 0 0-.559.867l-.207 1.219a1.034 1.034 0 0 0 .531.977c.172.096.36.145.563.148.24.005.447-.044.62-.148.175-.107.323-.248.442-.422a2.34 2.34 0 0 0 .285-.57c.073-.209.126-.412.157-.61Zm2.343 1.64 1.934-3.78h.508L97.33 7.68a3.51 3.51 0 0 1-.227.383 1.841 1.841 0 0 1-.281.332 1.145 1.145 0 0 1-.356.23 1.13 1.13 0 0 1-.441.09 1.516 1.516 0 0 1-.184-.02 1.291 1.291 0 0 1-.18-.035l.032-.394.117.015a.87.87 0 0 0 .563-.086c.127-.067.238-.16.332-.277.096-.117.18-.247.254-.39l.504-.97Zm-.539-3.788.688 3.652.039.48-.352.188-.855-4.32h.48Zm7.165.003-.063.383h-2.062l.066-.383h2.059Zm-1.118-1.086h.457l-.734 4.29c-.016.112-.02.22-.012.324a.45.45 0 0 0 .106.258c.06.065.157.099.293.101.065 0 .129-.004.191-.012.065-.01.129-.02.192-.027l-.02.399a1.6 1.6 0 0 1-.234.043 1.46 1.46 0 0 1-.239.011c-.218-.002-.384-.056-.496-.16a.74.74 0 0 1-.219-.406 1.64 1.64 0 0 1-.011-.54l.726-4.28ZM105.799 1l-1.039 6h-.457l1.039-6h.457Zm-.722 3.625-.184-.117c.052-.23.132-.452.238-.668.107-.219.24-.414.399-.586.161-.175.346-.311.555-.41.211-.102.445-.151.703-.149.231.003.423.046.574.13.154.08.272.193.355.34.084.142.136.308.157.495.023.185.02.382-.008.59L107.401 7h-.461l.473-2.758a1.79 1.79 0 0 0-.004-.562.691.691 0 0 0-.219-.418c-.117-.107-.293-.16-.527-.16-.209-.003-.4.04-.574.128a1.6 1.6 0 0 0-.469.352c-.136.146-.25.31-.344.492a2.31 2.31 0 0 0-.199.551Zm5.137 2.453a1.523 1.523 0 0 1-.743-.18 1.461 1.461 0 0 1-.507-.468 1.961 1.961 0 0 1-.27-.664 2.403 2.403 0 0 1-.031-.754l.023-.172a2.93 2.93 0 0 1 .215-.774c.109-.255.251-.485.426-.691.177-.208.384-.374.621-.496.237-.125.5-.186.789-.184.273.003.503.06.687.172.188.11.336.257.446.442.109.184.181.392.215.62.036.23.04.464.011.704l-.039.285h-3.109l.058-.398h2.641l.012-.055a1.534 1.534 0 0 0-.035-.645 1.043 1.043 0 0 0-.305-.515c-.148-.136-.348-.205-.598-.207a1.185 1.185 0 0 0-.625.148c-.182.102-.34.24-.472.414a2.322 2.322 0 0 0-.317.57c-.08.206-.136.41-.168.61l-.019.168c-.026.195-.025.39.004.586.031.195.091.375.179.539.091.161.214.293.368.394.156.1.346.15.57.153.25.005.475-.045.676-.149.203-.107.389-.247.558-.422l.274.227a1.952 1.952 0 0 1-.43.41 1.74 1.74 0 0 1-.52.25 2.073 2.073 0 0 1-.585.082ZM4.327 15.59l-.07.41H1.15l.066-.41h3.11ZM2.28 10.313 1.296 16H.823l.984-5.688h.473Zm2.133 2.55-.067.41H1.62l.07-.41h2.723Zm.812-2.55-.07.414h-3.09l.066-.415h3.094Zm2.637 4.69.555-3.23h.46L8.148 16h-.441l.156-.996Zm.207-.76.234-.009a2.963 2.963 0 0 1-.203.723 2.07 2.07 0 0 1-.37.59c-.155.17-.34.302-.556.398a1.775 1.775 0 0 1-.746.133 1.243 1.243 0 0 1-.59-.133.925.925 0 0 1-.363-.351 1.36 1.36 0 0 1-.164-.512 2.483 2.483 0 0 1 .004-.605l.461-2.704h.457l-.46 2.715c-.022.146-.028.29-.02.43.01.138.04.263.09.375a.63.63 0 0 0 .234.27.793.793 0 0 0 .418.105c.3.005.557-.053.773-.176a1.47 1.47 0 0 0 .524-.512c.135-.216.227-.462.277-.738Zm2.32-1.755L9.784 16h-.457l.73-4.227h.446l-.114.715Zm1.567-.746-.059.426a2.434 2.434 0 0 0-.144-.02 1.42 1.42 0 0 0-.149-.007 1.223 1.223 0 0 0-.562.117c-.162.08-.304.19-.426.328a1.98 1.98 0 0 0-.3.469 2.722 2.722 0 0 0-.188.53l-.184.067c.039-.226.098-.455.176-.687.08-.232.187-.444.32-.637.136-.195.3-.351.496-.469a1.304 1.304 0 0 1 .863-.152c.053.008.105.02.157.035Zm.011 2.223.02-.13a3.09 3.09 0 0 1 .226-.8 2.54 2.54 0 0 1 .438-.687 2.03 2.03 0 0 1 .64-.48c.245-.118.518-.175.817-.173.297.003.55.065.758.188.208.12.375.281.5.484.127.203.215.431.262.684.046.25.054.506.023.77l-.016.128a2.924 2.924 0 0 1-.23.797c-.112.255-.26.484-.441.688-.18.2-.392.359-.637.476-.245.115-.517.17-.817.168a1.539 1.539 0 0 1-.757-.183 1.437 1.437 0 0 1-.5-.485 1.98 1.98 0 0 1-.258-.68 2.595 2.595 0 0 1-.028-.765Zm.477-.13-.016.13a2.387 2.387 0 0 0-.004.594c.024.2.077.385.16.554.087.167.206.302.36.407.154.104.346.157.578.16.237.002.45-.046.64-.145.19-.099.355-.232.493-.398.14-.17.254-.357.34-.563.086-.208.146-.416.18-.625l.015-.129a2.24 2.24 0 0 0 0-.59 1.696 1.696 0 0 0-.16-.558 1.043 1.043 0 0 0-.356-.41 1.01 1.01 0 0 0-.578-.164 1.275 1.275 0 0 0-.64.144c-.19.1-.354.233-.492.402-.139.17-.252.359-.34.567a2.743 2.743 0 0 0-.18.625Zm4.805-1.23-.867 5.02h-.462l1.012-5.852h.43l-.113.832Zm2.633 1.23-.012.083a4.03 4.03 0 0 1-.2.758c-.09.255-.213.49-.367.703a1.83 1.83 0 0 1-.562.516 1.447 1.447 0 0 1-.77.183 1.39 1.39 0 0 1-.597-.125 1.376 1.376 0 0 1-.457-.348 1.508 1.508 0 0 1-.282-.511 1.648 1.648 0 0 1-.074-.614l.172-1.078c.052-.226.134-.442.246-.648.112-.206.25-.39.414-.55.167-.162.354-.287.563-.376a1.65 1.65 0 0 1 .68-.133c.291.003.527.07.706.203.18.133.314.306.403.52.088.214.14.445.156.695a3.51 3.51 0 0 1-.02.723Zm-.473.083.012-.086c.026-.177.036-.365.03-.563a1.872 1.872 0 0 0-.097-.562.928.928 0 0 0-.285-.43c-.133-.114-.316-.173-.55-.175a1.321 1.321 0 0 0-.512.093 1.62 1.62 0 0 0-.446.262 1.796 1.796 0 0 0-.351.39 1.621 1.621 0 0 0-.211.477l-.22 1.254a1 1 0 0 0 .142.567 1.124 1.124 0 0 0 .964.535c.24.002.447-.048.621-.153.178-.106.326-.247.446-.421a2.44 2.44 0 0 0 .293-.575 3.58 3.58 0 0 0 .164-.613Zm2.758 2.16a1.52 1.52 0 0 1-.743-.18 1.463 1.463 0 0 1-.507-.468 1.97 1.97 0 0 1-.27-.664 2.43 2.43 0 0 1-.031-.754l.023-.172a2.91 2.91 0 0 1 .64-1.465c.178-.208.385-.374.622-.496.237-.125.5-.186.79-.184.273.003.502.06.687.172.187.11.335.257.445.442.11.184.18.392.215.62.036.23.04.464.011.704l-.039.285h-3.109l.059-.398h2.64l.012-.055a1.53 1.53 0 0 0-.035-.645 1.037 1.037 0 0 0-.305-.515c-.148-.136-.348-.205-.598-.207a1.182 1.182 0 0 0-.625.148c-.182.102-.34.24-.472.414-.13.172-.236.362-.317.57-.08.206-.136.41-.168.61l-.02.168a2.1 2.1 0 0 0 .005.586c.031.195.09.375.18.539.09.161.213.293.367.394.156.1.346.15.57.153.25.005.475-.045.676-.149.203-.107.39-.247.558-.422l.274.227a1.94 1.94 0 0 1-.43.41 1.742 1.742 0 0 1-.52.25 2.082 2.082 0 0 1-.585.082Zm4.996-.836.363-2.183a.918.918 0 0 0-.055-.516.664.664 0 0 0-.304-.332 1.054 1.054 0 0 0-.512-.121 1.448 1.448 0 0 0-.531.094c-.175.065-.327.16-.457.285a.919.919 0 0 0-.254.469l-.457-.004c.028-.2.099-.378.21-.532.113-.156.25-.286.415-.39.166-.107.346-.187.539-.239.192-.054.383-.08.57-.078.279 0 .52.056.727.168.205.11.359.267.46.473.105.203.139.448.102.734l-.344 2.043a3.89 3.89 0 0 0-.047.422c-.007.14.003.279.032.414l-.004.051h-.477a2.037 2.037 0 0 1-.02-.379c.009-.128.023-.254.044-.379Zm.394-1.703-.05.36h-.864a3.26 3.26 0 0 0-.512.042c-.18.03-.351.079-.515.149a1.2 1.2 0 0 0-.418.293.875.875 0 0 0-.219.469.688.688 0 0 0 .055.43.69.69 0 0 0 .285.28.934.934 0 0 0 .422.102c.229.003.447-.039.652-.125.206-.088.39-.21.551-.367a1.71 1.71 0 0 0 .379-.547l.16.273c-.07.178-.17.34-.297.489a1.967 1.967 0 0 1-.95.613 1.973 1.973 0 0 1-.562.082 1.403 1.403 0 0 1-.625-.152 1.042 1.042 0 0 1-.425-.41 1.007 1.007 0 0 1-.114-.625c.029-.256.11-.47.243-.641a1.51 1.51 0 0 1 .503-.418c.201-.104.417-.18.649-.227.232-.046.457-.07.676-.07h.976Zm2.164-.844L29.151 16h-.457l.73-4.227h.438l-.14.922Zm-.254.93-.183-.117a3.01 3.01 0 0 1 .238-.668c.107-.219.24-.414.399-.586.161-.175.346-.311.554-.41.211-.102.445-.151.703-.149.232.003.424.046.575.13a.86.86 0 0 1 .355.34c.083.142.135.308.156.495a2.21 2.21 0 0 1-.008.59L31.793 16h-.461l.472-2.758a1.76 1.76 0 0 0-.004-.562.688.688 0 0 0-.218-.418c-.117-.107-.293-.16-.528-.16-.208-.003-.4.04-.574.128-.174.086-.33.204-.469.352-.135.146-.25.31-.343.492-.091.18-.158.364-.2.551Zm6.504-3.313h1.762c.336.008.633.076.89.204a1.3 1.3 0 0 1 .59.554c.136.242.181.542.137.899a1.69 1.69 0 0 1-.27.75 1.892 1.892 0 0 1-.542.523 2.817 2.817 0 0 1-.719.324l-.172.063h-1.95l.063-.41 1.575.004a1.7 1.7 0 0 0 .707-.157 1.421 1.421 0 0 0 .836-1.098c.041-.265.017-.489-.075-.671a.903.903 0 0 0-.418-.418 1.496 1.496 0 0 0-.66-.152H36.37L35.456 16h-.47l.985-5.688ZM38.405 16l-.992-2.543.476-.008 1.016 2.496L38.9 16h-.496Zm3.066.078a1.52 1.52 0 0 1-.742-.18 1.463 1.463 0 0 1-.508-.468 1.97 1.97 0 0 1-.27-.664 2.43 2.43 0 0 1-.03-.754l.023-.172a2.906 2.906 0 0 1 .64-1.465c.178-.208.385-.374.622-.496.237-.125.5-.186.789-.184.273.003.502.06.687.172.188.11.336.257.446.442.109.184.18.392.214.62.037.23.04.464.012.704l-.039.285h-3.11l.06-.398h2.64l.012-.055a1.53 1.53 0 0 0-.035-.645 1.037 1.037 0 0 0-.305-.515c-.149-.136-.348-.205-.598-.207a1.182 1.182 0 0 0-.625.148c-.182.102-.34.24-.472.414-.13.172-.236.362-.317.57a2.93 2.93 0 0 0-.168.61l-.02.168a2.1 2.1 0 0 0 .005.586c.03.195.09.375.18.539.09.161.213.293.366.394.157.1.347.15.57.153.25.005.476-.045.676-.149.204-.107.39-.247.559-.422l.274.227a1.942 1.942 0 0 1-.43.41 1.742 1.742 0 0 1-.52.25 2.082 2.082 0 0 1-.586.082Zm5.79-4.305h.43l-.712 4.153c-.055.33-.165.63-.332.898s-.385.48-.656.637a1.759 1.759 0 0 1-.93.227 1.618 1.618 0 0 1-.527-.094 1.587 1.587 0 0 1-.817-.64l.282-.278c.122.185.27.332.441.441.172.11.373.167.602.172.27.003.507-.055.71-.172.206-.117.373-.279.5-.484.13-.203.218-.434.262-.692l.559-3.254.187-.914Zm-3.247 2.172.012-.086c.036-.255.102-.51.195-.765.094-.255.218-.49.371-.703.157-.214.346-.383.567-.508.224-.128.484-.19.781-.188a1.25 1.25 0 0 1 1.043.531c.117.162.202.344.254.547.055.201.075.41.062.625l-.167 1.043a2.187 2.187 0 0 1-.653 1.16c-.164.152-.349.27-.555.356a1.61 1.61 0 0 1-.664.121c-.286-.002-.52-.072-.699-.207a1.277 1.277 0 0 1-.402-.523 2.298 2.298 0 0 1-.164-.692 3.37 3.37 0 0 1 .02-.71Zm.473-.086-.012.082a3.552 3.552 0 0 0-.035.563c.005.198.035.385.09.562a.94.94 0 0 0 .281.43c.133.112.315.17.547.172.224.005.439-.04.645-.137a1.666 1.666 0 0 0 .863-.988l.207-1.219a1.247 1.247 0 0 0-.055-.465 1.102 1.102 0 0 0-.215-.386.995.995 0 0 0-.796-.368 1.137 1.137 0 0 0-.625.153 1.447 1.447 0 0 0-.446.418c-.12.174-.217.366-.293.574a3.389 3.389 0 0 0-.156.61Zm4.895-2.086L48.65 16h-.457l.73-4.227h.458Zm-.325-1.218a.323.323 0 0 1 .098-.227.309.309 0 0 1 .227-.094.277.277 0 0 1 .222.09c.06.063.086.138.078.227a.313.313 0 0 1-.101.222.324.324 0 0 1-.227.09.283.283 0 0 1-.297-.309Zm.934 3.41.02-.13c.038-.275.114-.542.226-.8s.258-.487.437-.687c.183-.204.396-.364.641-.48.245-.118.517-.175.817-.173.296.003.549.065.757.188.209.12.375.281.5.484.128.203.215.431.262.684.047.25.055.506.023.77l-.015.128a2.94 2.94 0 0 1-.23.797 2.62 2.62 0 0 1-.442.688c-.18.2-.392.359-.637.476-.245.115-.517.17-.816.168a1.539 1.539 0 0 1-.758-.183 1.437 1.437 0 0 1-.5-.485 1.982 1.982 0 0 1-.258-.68 2.595 2.595 0 0 1-.027-.765Zm.476-.13-.015.13a2.377 2.377 0 0 0-.004.594c.023.2.077.385.16.554.086.167.206.302.36.407.153.104.346.157.577.16.237.002.451-.046.641-.145a1.59 1.59 0 0 0 .492-.398c.141-.17.254-.357.34-.563.086-.208.146-.416.18-.625l.016-.129a2.24 2.24 0 0 0 0-.59 1.69 1.69 0 0 0-.16-.558 1.043 1.043 0 0 0-.356-.41 1.01 1.01 0 0 0-.578-.164 1.275 1.275 0 0 0-.64.144c-.191.1-.355.233-.493.402-.138.17-.251.359-.34.567a2.753 2.753 0 0 0-.18.625Zm4.793-1.14L54.69 16h-.457l.73-4.227h.438l-.14.922Zm-.253.93-.184-.117a3.01 3.01 0 0 1 .238-.668c.107-.219.24-.414.399-.586.161-.175.346-.311.554-.41.211-.102.446-.151.703-.149.232.003.424.046.575.13a.86.86 0 0 1 .355.34c.083.142.136.308.156.495a2.21 2.21 0 0 1-.008.59L57.331 16h-.461l.472-2.758a1.76 1.76 0 0 0-.003-.562.688.688 0 0 0-.22-.418c-.116-.107-.292-.16-.527-.16-.208-.003-.4.04-.574.128-.174.086-.33.204-.469.352-.135.146-.25.31-.343.492-.092.18-.158.364-.2.551Zm6.125 1.617.363-2.183a.918.918 0 0 0-.055-.516.664.664 0 0 0-.305-.332 1.054 1.054 0 0 0-.511-.121 1.448 1.448 0 0 0-.532.094c-.174.065-.326.16-.457.285a.918.918 0 0 0-.253.469l-.458-.004c.03-.2.1-.378.211-.532a1.48 1.48 0 0 1 .414-.39c.167-.107.347-.187.54-.239.192-.054.382-.08.57-.078.279 0 .52.056.726.168.206.11.36.267.461.473.105.203.138.448.102.734l-.344 2.043a3.736 3.736 0 0 0-.047.422c-.008.14.003.279.032.414l-.004.051h-.477a2.046 2.046 0 0 1-.02-.379c.008-.128.023-.254.044-.379Zm.394-1.703-.05.36h-.864a3.33 3.33 0 0 0-.512.042c-.18.03-.351.079-.515.149-.165.07-.304.168-.418.293a.874.874 0 0 0-.22.469.687.687 0 0 0 .056.43.69.69 0 0 0 .285.28.934.934 0 0 0 .422.102c.229.003.446-.039.652-.125a1.773 1.773 0 0 0 .93-.914l.16.273c-.07.178-.17.34-.297.489a1.964 1.964 0 0 1-.95.613 1.973 1.973 0 0 1-.562.082 1.402 1.402 0 0 1-.625-.152 1.043 1.043 0 0 1-.426-.41 1.007 1.007 0 0 1-.113-.625c.029-.256.11-.47.242-.641.136-.175.304-.314.504-.418.2-.104.417-.18.649-.227.231-.046.457-.07.675-.07h.977ZM64.21 10l-1.036 6h-.457l1.036-6h.457Zm3.773 6h-1.281l.074-.41h1.219a2.164 2.164 0 0 0 1.117-.297c.326-.198.591-.461.797-.79.208-.327.346-.69.414-1.085l.086-.531c.041-.271.044-.533.008-.785a1.806 1.806 0 0 0-.23-.688 1.321 1.321 0 0 0-.49-.492c-.205-.123-.46-.188-.765-.195h-1.34l.07-.415h1.278c.362.008.676.084.942.227.265.14.479.332.64.574.164.24.275.513.332.82.06.308.067.63.02.965l-.082.52c-.058.36-.166.695-.325 1.008a2.954 2.954 0 0 1-.601.82 2.683 2.683 0 0 1-1.883.754Zm-.086-5.688L66.913 16h-.473l.984-5.688h.473Zm5.176 5.766a1.519 1.519 0 0 1-.742-.18 1.463 1.463 0 0 1-.508-.468 1.97 1.97 0 0 1-.27-.664 2.43 2.43 0 0 1-.03-.754l.023-.172a2.91 2.91 0 0 1 .64-1.465c.177-.208.384-.374.621-.496.237-.125.5-.186.79-.184.273.003.502.06.687.172.187.11.336.257.445.442.11.184.181.392.215.62.036.23.04.464.012.704l-.04.285h-3.109l.059-.398h2.64l.012-.055a1.532 1.532 0 0 0-.035-.645 1.036 1.036 0 0 0-.305-.515c-.148-.136-.347-.205-.597-.207a1.181 1.181 0 0 0-.625.148c-.183.102-.34.24-.473.414-.13.172-.236.362-.316.57a2.88 2.88 0 0 0-.168.61l-.02.168c-.026.195-.025.39.004.586.031.195.091.375.18.539.09.161.213.293.367.394.156.1.346.15.57.153.25.005.476-.045.676-.149a2.2 2.2 0 0 0 .559-.422l.273.227a1.94 1.94 0 0 1-.43.41 1.741 1.741 0 0 1-.52.25 2.081 2.081 0 0 1-.585.082Zm3.625-.547 1.898-3.754h.485L76.889 16h-.347l.156-.469Zm-.606-3.761.75 3.808V16h-.32l-.887-4.23h.457Zm4.621 4.308a1.519 1.519 0 0 1-.742-.18 1.463 1.463 0 0 1-.508-.468 1.97 1.97 0 0 1-.269-.664 2.43 2.43 0 0 1-.031-.754l.023-.172a2.906 2.906 0 0 1 .64-1.465c.178-.208.385-.374.622-.496.237-.125.5-.186.789-.184.273.003.503.06.687.172.188.11.336.257.446.442.11.184.18.392.215.62.036.23.04.464.011.704l-.039.285h-3.11l.06-.398h2.64l.012-.055a1.532 1.532 0 0 0-.035-.645 1.037 1.037 0 0 0-.305-.515c-.148-.136-.348-.205-.598-.207a1.181 1.181 0 0 0-.625.148c-.182.102-.34.24-.472.414a2.33 2.33 0 0 0-.317.57c-.08.206-.136.41-.168.61l-.02.168a2.1 2.1 0 0 0 .005.586c.03.195.09.375.18.539.09.161.213.293.367.394.156.1.346.15.57.153.25.005.475-.045.676-.149.203-.107.389-.247.558-.422l.274.227a1.942 1.942 0 0 1-.43.41 1.743 1.743 0 0 1-.52.25 2.081 2.081 0 0 1-.586.082ZM84.623 10l-1.035 6h-.456l1.035-6h.457Zm.305 3.965.02-.13a3.13 3.13 0 0 1 .226-.8c.112-.258.258-.487.438-.687.182-.204.396-.364.64-.48.245-.118.517-.175.817-.173.297.003.55.065.758.188.208.12.375.281.5.484.127.203.215.431.261.684.047.25.055.506.024.77l-.016.128a2.94 2.94 0 0 1-.23.797c-.112.255-.26.484-.442.688-.18.2-.392.359-.636.476-.245.115-.517.17-.817.168a1.539 1.539 0 0 1-.758-.183 1.437 1.437 0 0 1-.5-.485 1.982 1.982 0 0 1-.257-.68 2.595 2.595 0 0 1-.028-.765Zm.477-.13-.016.13a2.377 2.377 0 0 0-.004.594c.024.2.077.385.16.554.087.167.206.302.36.407.154.104.346.157.578.16.237.002.45-.046.64-.145.19-.099.355-.232.493-.398.14-.17.254-.357.34-.563a2.87 2.87 0 0 0 .18-.625l.015-.129a2.24 2.24 0 0 0 0-.59 1.69 1.69 0 0 0-.16-.558 1.043 1.043 0 0 0-.356-.41 1.01 1.01 0 0 0-.578-.164 1.275 1.275 0 0 0-.64.144c-.19.1-.355.233-.493.402-.138.17-.25.359-.34.567a2.753 2.753 0 0 0-.18.625Zm4.805-1.23-.868 5.02h-.46l1.011-5.852h.43l-.113.832Zm2.632 1.23-.011.083a4.03 4.03 0 0 1-.2.758c-.09.255-.213.49-.367.703a1.832 1.832 0 0 1-.562.516 1.448 1.448 0 0 1-.77.183c-.219 0-.418-.041-.597-.125a1.375 1.375 0 0 1-.457-.348 1.508 1.508 0 0 1-.282-.511 1.65 1.65 0 0 1-.074-.614l.172-1.078c.052-.226.134-.442.246-.648.112-.206.25-.39.414-.55.167-.162.354-.287.563-.376a1.65 1.65 0 0 1 .68-.133c.291.003.527.07.706.203.18.133.314.306.403.52.088.214.14.445.156.695a3.47 3.47 0 0 1-.02.723Zm-.472.083.011-.086c.026-.177.037-.365.032-.563a1.872 1.872 0 0 0-.098-.562.928.928 0 0 0-.285-.43c-.133-.114-.317-.173-.55-.175a1.321 1.321 0 0 0-.513.093c-.161.063-.31.15-.445.262a1.799 1.799 0 0 0-.352.39 1.626 1.626 0 0 0-.21.477l-.22 1.254a1 1 0 0 0 .142.567 1.123 1.123 0 0 0 .964.535c.24.002.447-.048.621-.153.177-.106.326-.247.446-.421.122-.178.22-.369.293-.575a3.58 3.58 0 0 0 .164-.613Zm2.117-1.25L93.909 16h-.457l.726-4.227h.442l-.133.895Zm-.246.957-.2-.117a3.1 3.1 0 0 1 .235-.676 2.4 2.4 0 0 1 .39-.586c.16-.172.343-.307.551-.406.211-.1.448-.147.711-.145.224.003.412.043.563.121a.886.886 0 0 1 .363.32c.089.136.146.294.172.473.029.18.03.373.004.579L96.553 16h-.457l.477-2.8a1.457 1.457 0 0 0-.012-.555.675.675 0 0 0-.246-.395c-.125-.099-.302-.15-.531-.152-.216 0-.41.043-.582.129a1.458 1.458 0 0 0-.45.347c-.127.146-.234.31-.32.492a2.949 2.949 0 0 0-.191.559Zm2.793-.367-.317.004a2.2 2.2 0 0 1 .239-.61c.11-.192.245-.36.406-.504.161-.143.342-.255.543-.335.203-.081.422-.12.656-.118.234 0 .43.042.586.125a.89.89 0 0 1 .363.336c.089.14.146.305.172.492.026.188.025.387-.004.598L99.21 16h-.461l.468-2.762c.032-.208.03-.398-.004-.57a.68.68 0 0 0-.238-.414c-.122-.104-.302-.155-.539-.152-.172 0-.335.03-.488.09a1.346 1.346 0 0 0-.41.245 1.517 1.517 0 0 0-.504.82Zm4.976 2.82a1.521 1.521 0 0 1-.742-.18 1.473 1.473 0 0 1-.508-.468 1.98 1.98 0 0 1-.269-.664 2.403 2.403 0 0 1-.031-.754l.023-.172a2.93 2.93 0 0 1 .215-.774c.109-.255.251-.485.426-.691.177-.208.384-.374.621-.496.237-.125.5-.186.789-.184.273.003.502.06.687.172.188.11.336.257.446.442.109.184.181.392.214.62.037.23.041.464.012.704l-.039.285h-3.109l.058-.398h2.641l.012-.055a1.534 1.534 0 0 0-.035-.645 1.043 1.043 0 0 0-.305-.515c-.149-.136-.348-.205-.598-.207a1.182 1.182 0 0 0-.625.148c-.182.102-.34.24-.472.414a2.32 2.32 0 0 0-.317.57 2.852 2.852 0 0 0-.168.61l-.019.168c-.026.195-.025.39.004.586.031.195.091.375.179.539.091.161.214.293.367.394.157.1.347.15.571.153.25.005.475-.045.676-.149a2.2 2.2 0 0 0 .558-.422l.274.227a1.952 1.952 0 0 1-.43.41 1.74 1.74 0 0 1-.52.25 2.075 2.075 0 0 1-.586.082Zm3.391-3.383-.57 3.305h-.457l.73-4.227h.438l-.141.922Zm-.254.93-.183-.117c.052-.23.131-.452.238-.668.107-.219.239-.414.398-.586a1.81 1.81 0 0 1 .555-.41c.211-.102.445-.151.703-.149.232.003.423.046.574.13.154.08.272.193.356.34.083.142.135.308.156.495.023.185.021.382-.008.59l-.465 2.75h-.461l.473-2.758a1.76 1.76 0 0 0-.004-.562.686.686 0 0 0-.219-.418c-.117-.107-.293-.16-.527-.16-.208-.003-.4.04-.574.128a1.6 1.6 0 0 0-.469.352 2.225 2.225 0 0 0-.543 1.043Zm5.777-1.852-.062.383h-2.063l.067-.383h2.058Zm-1.117-1.085h.457l-.734 4.289a1.48 1.48 0 0 0-.012.324.45.45 0 0 0 .106.258c.06.065.157.099.293.101.065 0 .129-.004.191-.012.065-.01.129-.02.191-.027l-.019.399a1.6 1.6 0 0 1-.234.043c-.079.01-.158.014-.239.011-.218-.002-.384-.056-.496-.16a.74.74 0 0 1-.219-.406 1.64 1.64 0 0 1-.011-.54l.726-4.28ZM2.28 19.312 1.296 25H.823l.984-5.688h.473Zm2.117 2.618-.07.414h-2.73l.07-.414h2.73Zm.832-2.617-.07.414h-3.11l.07-.415h3.11Zm2.57 4.69.555-3.23h.461L8.085 25h-.442l.156-.996Zm.207-.76.235-.009c-.04.256-.107.496-.203.723-.094.224-.218.42-.371.59-.154.17-.339.302-.555.398a1.775 1.775 0 0 1-.746.133 1.243 1.243 0 0 1-.59-.133.925.925 0 0 1-.363-.351 1.36 1.36 0 0 1-.164-.512 2.483 2.483 0 0 1 .004-.605l.46-2.704h.458l-.461 2.715c-.021.146-.028.29-.02.43.01.138.04.263.09.375.052.112.13.202.234.27a.793.793 0 0 0 .418.105c.3.005.558-.053.774-.176a1.47 1.47 0 0 0 .523-.512c.136-.216.228-.462.277-.738Zm2.286-1.548L9.722 25h-.458l.73-4.227h.438l-.14.922Zm-.254.93-.184-.117c.052-.23.132-.452.238-.668.107-.219.24-.414.399-.586.161-.175.346-.311.555-.41.21-.102.445-.151.703-.149.231.003.423.046.574.13a.86.86 0 0 1 .355.34c.084.142.136.308.157.495.023.185.02.382-.008.59L12.362 25H11.9l.473-2.758c.028-.203.027-.39-.004-.562a.689.689 0 0 0-.219-.418c-.117-.107-.293-.16-.527-.16a1.22 1.22 0 0 0-.575.128c-.174.086-.33.204-.468.352-.136.146-.25.31-.344.492-.091.18-.158.363-.2.551Zm6.3 1.535.895-5.16h.457l-1.039 6h-.426l.113-.84Zm-2.632-1.215.011-.082c.04-.255.106-.51.2-.765.093-.258.218-.494.375-.707a1.83 1.83 0 0 1 .566-.512c.224-.128.483-.189.777-.184a1.25 1.25 0 0 1 1.043.531c.117.162.202.344.254.547.055.201.076.41.063.625l-.168 1.043a2.187 2.187 0 0 1-.653 1.16 1.82 1.82 0 0 1-.554.356 1.611 1.611 0 0 1-.664.121c-.284-.002-.516-.072-.696-.207a1.277 1.277 0 0 1-.402-.523 2.226 2.226 0 0 1-.168-.692 3.56 3.56 0 0 1 .016-.71Zm.48-.086-.012.082a3.552 3.552 0 0 0-.035.563c.003.198.032.385.086.562a.928.928 0 0 0 .285.43c.133.112.314.17.543.176a1.47 1.47 0 0 0 .649-.14 1.71 1.71 0 0 0 .539-.407c.156-.172.265-.366.328-.582l.21-1.219a1.197 1.197 0 0 0-.273-.851 1.048 1.048 0 0 0-.351-.266 1 1 0 0 0-.453-.102 1.13 1.13 0 0 0-.621.153 1.447 1.447 0 0 0-.446.418 2.27 2.27 0 0 0-.293.57c-.072.206-.125.41-.156.613Zm7.871-2.086-.062.383h-2.063l.067-.383h2.058Zm-1.117-1.085h.457l-.734 4.289a1.48 1.48 0 0 0-.012.324.45.45 0 0 0 .105.258c.06.065.158.099.293.101a1.5 1.5 0 0 0 .192-.012c.065-.01.129-.02.191-.027l-.02.399a1.47 1.47 0 0 1-.234.043c-.078.01-.157.014-.238.011-.219-.002-.384-.056-.496-.16a.74.74 0 0 1-.219-.406 1.619 1.619 0 0 1-.012-.54l.727-4.28ZM23.768 19l-1.039 6h-.457l1.04-6h.456Zm-.723 3.625-.183-.117a3.01 3.01 0 0 1 .238-.668c.107-.219.24-.414.399-.586.161-.175.346-.311.554-.41.211-.102.446-.151.703-.149.232.003.424.046.575.13a.85.85 0 0 1 .355.34c.084.142.136.308.156.495.024.185.021.382-.007.59L25.37 25h-.461l.473-2.758c.028-.203.027-.39-.004-.562a.689.689 0 0 0-.22-.418c-.116-.107-.292-.16-.527-.16-.208-.003-.4.04-.574.128-.174.086-.33.204-.468.352-.136.146-.25.31-.344.492-.091.18-.158.363-.2.551Zm4.547-1.137L26.987 25h-.457l.73-4.227h.446l-.114.715Zm1.567-.746-.059.426a2.423 2.423 0 0 0-.144-.02 1.42 1.42 0 0 0-.149-.007 1.223 1.223 0 0 0-.562.117c-.162.08-.304.19-.426.328-.12.138-.22.294-.3.469a2.79 2.79 0 0 0-.188.53l-.184.067c.04-.226.098-.455.176-.687.08-.232.187-.444.32-.637.136-.195.301-.351.496-.469a1.304 1.304 0 0 1 .864-.152c.052.008.104.02.156.035Zm.012 2.223.02-.13c.038-.275.114-.542.226-.8s.257-.487.437-.687c.182-.203.396-.364.64-.48.245-.118.518-.175.817-.173.297.003.55.065.758.188.208.12.375.281.5.484.128.203.215.431.262.684.047.25.054.506.023.77l-.015.128c-.04.276-.116.542-.231.797a2.6 2.6 0 0 1-.441.688c-.18.2-.392.359-.637.476-.245.115-.517.17-.817.168a1.539 1.539 0 0 1-.757-.183 1.437 1.437 0 0 1-.5-.485 1.982 1.982 0 0 1-.258-.68 2.595 2.595 0 0 1-.027-.765Zm.476-.13-.015.13a2.377 2.377 0 0 0-.004.594c.023.2.076.385.16.554.086.167.205.302.36.407.153.104.345.157.577.16.237.002.45-.046.64-.145.19-.099.355-.232.493-.398.14-.17.254-.357.34-.563.086-.208.146-.416.18-.625l.015-.129a2.24 2.24 0 0 0 0-.59 1.69 1.69 0 0 0-.16-.558 1.043 1.043 0 0 0-.355-.41 1.01 1.01 0 0 0-.579-.164 1.275 1.275 0 0 0-.64.144c-.19.1-.354.233-.492.402-.138.17-.252.359-.34.567a2.743 2.743 0 0 0-.18.625Zm6.567 1.169.554-3.23h.461L36.5 25h-.442l.157-.996Zm.206-.762.235-.008a3 3 0 0 1-.203.723c-.094.224-.218.42-.371.59-.154.17-.339.302-.555.398a1.775 1.775 0 0 1-.746.133 1.242 1.242 0 0 1-.59-.133.925.925 0 0 1-.363-.351 1.36 1.36 0 0 1-.164-.512 2.487 2.487 0 0 1 .004-.605l.46-2.704h.458l-.461 2.715c-.021.146-.028.29-.02.43.01.138.04.263.09.375.052.112.13.202.234.27a.793.793 0 0 0 .418.105c.3.005.558-.053.774-.176a1.47 1.47 0 0 0 .523-.512 2.06 2.06 0 0 0 .277-.738Zm4.684-2.469h.43l-.711 4.153c-.055.33-.166.63-.332.898a1.85 1.85 0 0 1-.656.637 1.76 1.76 0 0 1-.93.227 1.617 1.617 0 0 1-.527-.094 1.589 1.589 0 0 1-.817-.64l.281-.278c.123.185.27.332.442.441.172.11.372.167.601.172.271.003.508-.055.711-.172.206-.117.373-.279.5-.484.13-.203.218-.434.262-.692l.559-3.253.187-.915Zm-3.246 2.172.012-.086c.036-.255.101-.51.195-.765.094-.256.218-.49.371-.703.156-.214.345-.383.567-.508.224-.128.484-.19.78-.188a1.25 1.25 0 0 1 1.043.531c.118.162.203.344.255.547.054.201.075.41.062.625l-.168 1.043a2.208 2.208 0 0 1-.652 1.16 1.88 1.88 0 0 1-.555.356 1.61 1.61 0 0 1-.664.121c-.286-.002-.52-.072-.7-.207a1.276 1.276 0 0 1-.401-.523 2.295 2.295 0 0 1-.164-.692 3.383 3.383 0 0 1 .019-.71Zm.473-.086-.012.082a3.54 3.54 0 0 0-.035.563c.005.198.035.385.09.562a.94.94 0 0 0 .28.43c.134.112.316.17.548.172.224.005.439-.04.644-.137a1.668 1.668 0 0 0 .864-.988l.207-1.219a1.247 1.247 0 0 0-.055-.465 1.102 1.102 0 0 0-.215-.386.996.996 0 0 0-.797-.367 1.137 1.137 0 0 0-.625.152 1.447 1.447 0 0 0-.445.418 2.54 2.54 0 0 0-.293.574 3.38 3.38 0 0 0-.156.61ZM43.479 19l-1.039 6h-.457l1.04-6h.456Zm-.722 3.625-.184-.117a3.01 3.01 0 0 1 .238-.668c.107-.219.24-.414.399-.586.161-.175.346-.311.554-.41.211-.102.446-.151.703-.149.232.003.424.046.575.13a.86.86 0 0 1 .355.34c.083.142.136.308.156.495a2.21 2.21 0 0 1-.008.59L45.081 25h-.461l.472-2.758a1.76 1.76 0 0 0-.003-.562.688.688 0 0 0-.22-.418c-.116-.107-.292-.16-.527-.16-.208-.003-.4.04-.574.128-.174.086-.33.204-.469.352a2.312 2.312 0 0 0-.543 1.043Zm7.699-1.852-.063.383h-2.062l.066-.383h2.059Zm-1.117-1.085h.456l-.734 4.289a1.48 1.48 0 0 0-.012.324c.01.104.046.19.106.258.06.065.157.099.293.101.065 0 .129-.004.191-.012.065-.01.13-.02.192-.027l-.02.399a1.6 1.6 0 0 1-.234.043 1.45 1.45 0 0 1-.238.011c-.22-.002-.385-.056-.497-.16a.739.739 0 0 1-.218-.406 1.616 1.616 0 0 1-.012-.54l.727-4.28ZM52.167 19l-1.04 6h-.457l1.04-6h.457Zm-.723 3.625-.184-.117a3.01 3.01 0 0 1 .239-.668c.106-.219.24-.414.398-.586.162-.175.346-.311.555-.41.21-.102.445-.151.703-.149.232.003.423.046.574.13a.86.86 0 0 1 .356.34c.083.142.135.308.156.495.023.185.02.382-.008.59L53.768 25h-.46l.472-2.758a1.76 1.76 0 0 0-.004-.562.688.688 0 0 0-.219-.418c-.117-.107-.293-.16-.527-.16-.208-.003-.4.04-.574.128a1.627 1.627 0 0 0-.47.352c-.134.146-.25.31-.343.492-.091.18-.157.363-.199.551Zm5.137 2.453a1.519 1.519 0 0 1-.742-.18 1.463 1.463 0 0 1-.508-.468 1.969 1.969 0 0 1-.27-.664 2.43 2.43 0 0 1-.031-.754l.023-.172a2.91 2.91 0 0 1 .641-1.465c.177-.208.384-.374.621-.496.237-.125.5-.186.79-.184.273.003.502.06.687.172.187.11.336.257.445.442.11.184.18.392.215.62.036.23.04.464.012.704l-.04.285h-3.109l.059-.398h2.64l.012-.055a1.53 1.53 0 0 0-.035-.645 1.036 1.036 0 0 0-.305-.515c-.148-.136-.347-.205-.597-.207a1.181 1.181 0 0 0-.625.148c-.183.102-.34.24-.473.414-.13.172-.236.362-.317.57a2.88 2.88 0 0 0-.167.61l-.02.168c-.026.195-.025.39.004.586.031.195.091.375.18.539.09.161.213.293.367.394.156.1.346.15.57.153.25.005.475-.045.676-.149.203-.107.39-.247.558-.422l.274.227a1.941 1.941 0 0 1-.43.41 1.743 1.743 0 0 1-.52.25 2.081 2.081 0 0 1-.585.082Zm8.715-5.765h.468l-.66 3.847c-.06.386-.193.723-.398 1.012a2.149 2.149 0 0 1-.782.676 2.26 2.26 0 0 1-1.062.23c-.378-.002-.7-.086-.965-.25a1.426 1.426 0 0 1-.574-.676c-.12-.286-.155-.616-.106-.988l.665-3.852h.464l-.66 3.856c-.039.284-.02.538.059.762.078.224.212.402.402.535.19.13.435.198.735.203a1.76 1.76 0 0 0 .828-.184c.244-.127.446-.304.605-.53.162-.227.268-.49.32-.79l.66-3.852Zm1.742 2.175L66.432 25h-.457l.73-4.227h.446l-.113.715Zm1.566-.746-.058.426a2.412 2.412 0 0 0-.145-.02 1.42 1.42 0 0 0-.148-.007 1.223 1.223 0 0 0-.563.117c-.161.08-.303.19-.426.328-.12.138-.22.294-.3.469a2.79 2.79 0 0 0-.188.53l-.184.067c.04-.226.098-.455.176-.687a2.66 2.66 0 0 1 .32-.637 1.62 1.62 0 0 1 .497-.469 1.304 1.304 0 0 1 .863-.152c.052.008.104.02.156.035ZM69.616 19h.46l-.902 5.2-.168.8h-.43l1.04-6Zm2.644 3.836-.011.082a4.03 4.03 0 0 1-.2.758c-.09.255-.213.49-.367.703a1.832 1.832 0 0 1-.562.515 1.448 1.448 0 0 1-.77.184c-.224 0-.424-.044-.601-.133a1.388 1.388 0 0 1-.45-.363 1.61 1.61 0 0 1-.27-.523 1.794 1.794 0 0 1-.066-.618l.169-1.043c.052-.224.132-.438.242-.644.109-.206.246-.388.41-.547.164-.161.349-.288.554-.379.209-.094.434-.138.676-.133.292.003.528.07.707.203.18.133.313.306.399.52.088.213.142.445.16.695a3.51 3.51 0 0 1-.02.723Zm-.476.082.015-.086c.026-.177.037-.365.032-.563a1.871 1.871 0 0 0-.09-.562.9.9 0 0 0-.281-.434c-.13-.111-.313-.169-.547-.171a1.332 1.332 0 0 0-.516.093c-.161.063-.31.15-.445.262a1.765 1.765 0 0 0-.559.867l-.207 1.219a1.034 1.034 0 0 0 .531.977c.172.096.36.145.563.148.24.005.447-.044.621-.148.175-.107.322-.248.441-.422.12-.175.215-.365.286-.57.073-.209.125-.412.156-.61Zm3.738 1.324.363-2.183a.918.918 0 0 0-.054-.516.664.664 0 0 0-.305-.332 1.054 1.054 0 0 0-.512-.121 1.448 1.448 0 0 0-.531.094c-.174.065-.327.16-.457.285a.919.919 0 0 0-.254.468l-.457-.003c.029-.2.099-.378.211-.532a1.48 1.48 0 0 1 .414-.39c.167-.107.346-.186.54-.239.192-.054.382-.08.57-.078.278 0 .52.056.726.168.206.11.36.267.46.473.105.203.139.448.102.734l-.343 2.043c-.024.138-.04.279-.047.422-.008.14.003.279.031.414l-.004.051H75.5a2.037 2.037 0 0 1-.02-.379c.008-.127.022-.254.043-.379Zm.395-1.703-.051.36h-.863a3.33 3.33 0 0 0-.512.042 2.25 2.25 0 0 0-.516.149 1.2 1.2 0 0 0-.418.293.875.875 0 0 0-.219.469.688.688 0 0 0 .055.43.69.69 0 0 0 .285.28.934.934 0 0 0 .422.102c.23.003.447-.039.653-.125a1.796 1.796 0 0 0 .93-.914l.16.273c-.07.178-.17.34-.297.489a1.964 1.964 0 0 1-.95.613 1.973 1.973 0 0 1-.562.082 1.402 1.402 0 0 1-.625-.152 1.043 1.043 0 0 1-.426-.41 1.007 1.007 0 0 1-.113-.625c.028-.256.11-.47.242-.641.135-.175.303-.314.504-.418.2-.104.416-.18.648-.227.232-.047.457-.07.676-.07h.977Zm2.164-.844L77.51 25h-.458l.73-4.227h.438l-.14.922Zm-.254.93-.184-.117a3.01 3.01 0 0 1 .239-.668c.106-.219.24-.414.398-.586.161-.175.346-.311.555-.41.21-.102.445-.151.703-.149.231.003.423.046.574.13a.86.86 0 0 1 .355.34c.084.142.136.308.157.495.023.185.02.382-.008.59L80.15 25h-.46l.472-2.758a1.76 1.76 0 0 0-.004-.562.688.688 0 0 0-.219-.418c-.117-.107-.293-.16-.527-.16a1.22 1.22 0 0 0-.575.128c-.174.086-.33.204-.468.352-.136.146-.25.31-.344.492-.091.18-.158.363-.2.551Zm7.086-3.313L83.928 25h-.472l.984-5.688h.473Zm1.433 2.383L85.776 25h-.457l.73-4.227h.438l-.14.922Zm-.254.93-.183-.117a3.01 3.01 0 0 1 .238-.668c.107-.219.24-.414.398-.586a1.81 1.81 0 0 1 .555-.41c.211-.102.446-.151.703-.149.232.003.424.046.575.13a.86.86 0 0 1 .355.34c.083.142.135.308.156.495.024.185.021.382-.007.59L88.416 25h-.461l.472-2.758a1.76 1.76 0 0 0-.004-.562.688.688 0 0 0-.218-.418c-.118-.107-.293-.16-.528-.16-.208-.003-.4.04-.574.128-.174.086-.33.204-.469.352-.135.146-.25.31-.343.492-.091.18-.158.363-.2.551Zm4.52-.93L90.042 25h-.457l.73-4.227h.438l-.141.922Zm-.254.93-.184-.117a3.01 3.01 0 0 1 .239-.668c.106-.219.24-.414.398-.586.162-.175.346-.311.555-.41.21-.102.445-.151.703-.149.232.003.423.046.574.13.154.08.272.193.356.34.083.142.135.308.156.495.023.185.02.382-.008.59L92.682 25h-.46l.472-2.758c.029-.203.027-.39-.004-.562a.689.689 0 0 0-.219-.418c-.117-.107-.293-.16-.527-.16-.208-.003-.4.04-.574.128a1.61 1.61 0 0 0-.469.352 2.225 2.225 0 0 0-.543 1.043Zm3.602.34.02-.13c.038-.275.114-.542.226-.8s.257-.487.437-.687a2.03 2.03 0 0 1 .64-.48c.246-.118.518-.175.817-.173.297.003.55.065.758.188.208.12.375.281.5.484.128.203.215.431.262.684.047.25.054.506.023.77l-.015.128c-.04.276-.116.542-.23.797-.113.255-.26.485-.442.688-.18.2-.392.359-.637.476-.245.115-.517.17-.816.168a1.539 1.539 0 0 1-.758-.183 1.437 1.437 0 0 1-.5-.485 1.982 1.982 0 0 1-.258-.68 2.595 2.595 0 0 1-.027-.765Zm.476-.13-.016.13a2.387 2.387 0 0 0-.003.594c.023.2.076.385.16.554.086.167.206.302.36.407.153.104.346.157.577.16.237.002.45-.046.64-.145.191-.099.355-.232.493-.398.14-.17.254-.357.34-.563.086-.208.146-.416.18-.625l.015-.129a2.24 2.24 0 0 0 0-.59 1.696 1.696 0 0 0-.16-.558 1.043 1.043 0 0 0-.355-.41 1.01 1.01 0 0 0-.579-.164 1.275 1.275 0 0 0-.64.144c-.19.1-.354.233-.492.402-.138.17-.252.359-.34.567a2.747 2.747 0 0 0-.18.625Zm5.02 1.696 1.898-3.754h.485L99.647 25H99.3l.157-.469Zm-.606-3.761.75 3.808V25h-.32l-.887-4.23h.457Zm5.594 3.472.363-2.183a.915.915 0 0 0-.054-.516.665.665 0 0 0-.305-.332 1.056 1.056 0 0 0-.512-.121 1.444 1.444 0 0 0-.531.094 1.31 1.31 0 0 0-.457.285.918.918 0 0 0-.254.468l-.457-.003c.029-.2.099-.378.211-.532a1.48 1.48 0 0 1 .414-.39c.167-.107.346-.186.539-.239.193-.054.383-.08.57-.078.279 0 .521.056.727.168.206.11.359.267.461.473.104.203.138.448.101.734l-.343 2.043a3.646 3.646 0 0 0-.047.422c-.008.14.002.279.031.414l-.004.051h-.476a1.995 1.995 0 0 1-.02-.379c.008-.127.022-.254.043-.379Zm.395-1.703-.051.36h-.864a3.25 3.25 0 0 0-.511.042 2.25 2.25 0 0 0-.516.149 1.2 1.2 0 0 0-.418.293.885.885 0 0 0-.219.469.691.691 0 0 0 .055.43.69.69 0 0 0 .285.28.935.935 0 0 0 .422.102c.229.003.447-.039.652-.125.206-.088.39-.21.551-.367.162-.156.288-.339.379-.547l.16.273a1.7 1.7 0 0 1-.297.489 1.972 1.972 0 0 1-.949.613 1.97 1.97 0 0 1-.562.082 1.402 1.402 0 0 1-.625-.152 1.035 1.035 0 0 1-.426-.41 1.005 1.005 0 0 1-.113-.625c.028-.256.109-.47.242-.641.135-.175.303-.314.504-.418.2-.104.416-.18.648-.227.232-.047.457-.07.676-.07h.977Zm3.421-1.766-.062.383h-2.063l.067-.383h2.058Zm-1.117-1.085h.457l-.734 4.289a1.48 1.48 0 0 0-.012.324.45.45 0 0 0 .106.258c.059.065.157.099.293.101.065 0 .128-.004.191-.012.065-.01.129-.02.191-.027l-.019.399a1.59 1.59 0 0 1-.235.043c-.078.01-.157.014-.238.011-.219-.002-.384-.056-.496-.16a.74.74 0 0 1-.219-.406 1.614 1.614 0 0 1-.011-.54l.726-4.28Zm2.574 1.085-.73 4.227h-.457l.73-4.227h.457Zm-.324-1.218a.323.323 0 0 1 .098-.227.307.307 0 0 1 .226-.094.276.276 0 0 1 .223.09c.06.063.086.138.078.227a.325.325 0 0 1-.328.313.28.28 0 0 1-.219-.087.285.285 0 0 1-.078-.222Zm2.141 4.976 1.898-3.754h.485L111.725 25h-.347l.156-.469Zm-.606-3.761.75 3.808V25h-.32l-.887-4.23h.457Zm4.621 4.308a1.521 1.521 0 0 1-.742-.18 1.473 1.473 0 0 1-.508-.468 1.98 1.98 0 0 1-.269-.664 2.403 2.403 0 0 1-.031-.754l.023-.172a2.93 2.93 0 0 1 .215-.774c.109-.255.251-.485.426-.691.177-.208.384-.374.621-.496.237-.125.5-.186.789-.184.273.003.502.06.687.172.188.11.336.257.446.442.109.184.181.392.215.62.036.23.04.464.011.704l-.039.285h-3.109l.058-.398h2.641l.012-.055a1.534 1.534 0 0 0-.035-.645 1.043 1.043 0 0 0-.305-.515c-.149-.136-.348-.205-.598-.207a1.184 1.184 0 0 0-.625.148c-.182.102-.34.24-.472.414a2.32 2.32 0 0 0-.317.57 2.852 2.852 0 0 0-.168.61l-.019.168c-.026.195-.025.39.004.586.031.195.091.375.179.539.091.161.214.293.367.394.157.1.347.15.571.153.25.005.475-.045.676-.149a2.2 2.2 0 0 0 .558-.422l.274.227a1.952 1.952 0 0 1-.43.41 1.74 1.74 0 0 1-.52.25 2.075 2.075 0 0 1-.586.082ZM3.561 28.676.741 34H.233l3.066-5.684h.356l-.094.36ZM4.381 34l-.996-5.367.032-.32h.332L4.854 34h-.473Zm0-2.008-.07.414H1.378l.066-.414h2.937Zm2.782 1.688c.208 0 .4-.04.578-.121a1.26 1.26 0 0 0 .45-.344c.124-.149.214-.322.269-.52h.44a1.583 1.583 0 0 1-.336.727 1.79 1.79 0 0 1-1.414.656c-.297-.002-.546-.065-.746-.187a1.337 1.337 0 0 1-.473-.485 1.996 1.996 0 0 1-.23-.675 2.734 2.734 0 0 1-.004-.758l.02-.164a3.15 3.15 0 0 1 .21-.786 2.54 2.54 0 0 1 .41-.683c.172-.2.377-.358.614-.473.237-.117.504-.174.8-.172.295.003.547.07.758.203.211.13.371.309.48.536.113.224.164.479.153.765l-.433-.004a1.223 1.223 0 0 0-.098-.55.856.856 0 0 0-.328-.395 1.002 1.002 0 0 0-.543-.156 1.283 1.283 0 0 0-.637.144 1.42 1.42 0 0 0-.46.395 2.208 2.208 0 0 0-.31.555c-.078.203-.132.41-.163.62l-.024.165a3.211 3.211 0 0 0-.016.59c.016.197.06.381.13.55a.965.965 0 0 0 .327.407c.146.101.338.154.575.16Zm4.691-3.907-.062.383H9.729l.067-.383h2.058Zm-1.117-1.085h.457l-.734 4.289c-.016.112-.02.22-.012.324.01.104.045.19.105.258.06.065.158.099.293.101.065 0 .13-.004.192-.012.065-.01.129-.02.191-.027l-.02.398a1.46 1.46 0 0 1-.234.044c-.078.01-.157.014-.238.011-.219-.002-.384-.056-.496-.16a.74.74 0 0 1-.219-.406 1.615 1.615 0 0 1-.012-.54l.727-4.28Zm2.574 1.085L12.581 34h-.457l.73-4.227h.457Zm-.324-1.218a.323.323 0 0 1 .098-.227.309.309 0 0 1 .226-.094.277.277 0 0 1 .223.09c.06.063.086.138.078.227a.312.312 0 0 1-.102.222.324.324 0 0 1-.226.09.284.284 0 0 1-.297-.309Zm.934 3.41.02-.13c.038-.275.114-.542.226-.8s.257-.487.437-.687c.182-.203.396-.364.64-.48.245-.118.518-.175.817-.173.297.003.55.065.758.188.208.12.375.281.5.484.128.203.215.431.262.684.047.25.054.506.023.77l-.015.128c-.04.276-.116.542-.231.797-.112.255-.26.484-.441.688-.18.2-.392.359-.637.476-.245.115-.517.17-.817.168a1.539 1.539 0 0 1-.757-.184 1.437 1.437 0 0 1-.5-.484 1.982 1.982 0 0 1-.258-.68 2.595 2.595 0 0 1-.027-.765Zm.476-.13-.015.13a2.377 2.377 0 0 0-.004.594c.023.2.076.385.16.554.086.167.205.302.36.407.153.104.345.157.577.16.237.002.45-.046.64-.145.19-.099.355-.232.493-.398.14-.17.254-.357.34-.563.086-.208.146-.416.18-.625l.015-.129a2.24 2.24 0 0 0 0-.59 1.69 1.69 0 0 0-.16-.558 1.043 1.043 0 0 0-.355-.41 1.01 1.01 0 0 0-.579-.164 1.275 1.275 0 0 0-.64.144c-.19.1-.354.233-.492.402-.138.17-.252.359-.34.567a2.743 2.743 0 0 0-.18.625Zm4.793-1.14L18.62 34h-.457l.73-4.227h.438l-.14.922Zm-.254.93-.183-.117a3.01 3.01 0 0 1 .238-.668c.107-.219.24-.414.398-.586a1.81 1.81 0 0 1 .555-.41c.21-.102.445-.151.703-.149.232.003.423.046.574.13a.86.86 0 0 1 .356.34c.083.142.135.308.156.495.023.185.02.382-.008.59L21.26 34h-.46l.472-2.758c.029-.203.027-.39-.004-.562a.689.689 0 0 0-.219-.418c-.117-.107-.293-.16-.527-.16-.208-.003-.4.04-.574.128-.175.086-.33.204-.469.352a2.225 2.225 0 0 0-.543 1.043Zm6.16 1.285c.032-.187-.001-.338-.097-.453a.924.924 0 0 0-.38-.27 3.127 3.127 0 0 0-.456-.152 5.706 5.706 0 0 1-.473-.14 1.978 1.978 0 0 1-.426-.215.93.93 0 0 1-.297-.332.856.856 0 0 1-.078-.489c.018-.195.077-.366.176-.511.102-.146.228-.267.379-.364.154-.099.319-.172.496-.218.18-.047.358-.07.535-.07.258.002.492.051.703.148.214.096.38.238.5.425.123.185.175.416.157.692l-.454-.004a.708.708 0 0 0-.101-.465.756.756 0 0 0-.34-.289 1.142 1.142 0 0 0-.477-.105 1.57 1.57 0 0 0-.484.078 1.101 1.101 0 0 0-.414.242.724.724 0 0 0-.219.426.521.521 0 0 0 .043.347.63.63 0 0 0 .23.223c.102.057.212.104.329.14.117.037.228.07.332.098.213.058.423.132.629.223.206.091.37.217.492.379.125.159.175.368.148.629a1.1 1.1 0 0 1-.183.539 1.323 1.323 0 0 1-.395.375 1.788 1.788 0 0 1-.52.21 2.235 2.235 0 0 1-.558.071 1.955 1.955 0 0 1-.726-.144 1.264 1.264 0 0 1-.547-.422c-.138-.188-.198-.422-.18-.703l.457.004a.783.783 0 0 0 .129.488.794.794 0 0 0 .367.281c.156.06.326.091.508.094.164 0 .332-.026.504-.078a1.2 1.2 0 0 0 .45-.246.723.723 0 0 0 .241-.442Zm4.856-4.597L28.967 34h-.472l.984-5.688h.473Zm1.433 2.382L30.815 34h-.457l.73-4.227h.438l-.14.922Zm-.254.93-.183-.117a3.01 3.01 0 0 1 .238-.668c.107-.219.24-.414.399-.586.161-.175.346-.311.554-.41.211-.102.446-.151.703-.149.232.003.424.046.575.13a.86.86 0 0 1 .355.34c.083.142.136.308.156.495a2.21 2.21 0 0 1-.008.59L33.456 34h-.461l.472-2.758a1.76 1.76 0 0 0-.003-.562.688.688 0 0 0-.22-.418c-.116-.107-.292-.16-.527-.16-.208-.003-.4.04-.574.128-.174.086-.33.204-.469.352-.135.146-.25.31-.343.492-.091.18-.158.363-.2.551Zm4.735-1.852L35.136 34h-.458l.73-4.227h.458Zm-.324-1.218a.323.323 0 0 1 .097-.227.309.309 0 0 1 .227-.094.277.277 0 0 1 .223.09.28.28 0 0 1 .078.227.312.312 0 0 1-.102.222.325.325 0 0 1-.226.09.284.284 0 0 1-.297-.309Zm3.109 1.218-.063.383h-2.062l.066-.383h2.059Zm-1.117-1.085h.457l-.734 4.289c-.016.112-.02.22-.012.324.01.104.045.19.105.258.06.065.158.099.293.101.065 0 .13-.004.192-.012.065-.01.129-.02.191-.027l-.02.398a1.481 1.481 0 0 1-.234.044 1.45 1.45 0 0 1-.238.011c-.219-.002-.384-.056-.496-.16a.739.739 0 0 1-.219-.406 1.613 1.613 0 0 1-.012-.54l.727-4.28Zm2.574 1.085L39.378 34h-.458l.731-4.227h.457Zm-.324-1.218a.323.323 0 0 1 .098-.227.309.309 0 0 1 .226-.094.277.277 0 0 1 .223.09c.06.063.086.138.078.227a.312.312 0 0 1-.102.222.325.325 0 0 1-.226.09.284.284 0 0 1-.297-.309Zm3.457 4.687.363-2.183a.917.917 0 0 0-.055-.516.664.664 0 0 0-.304-.332 1.055 1.055 0 0 0-.512-.121 1.448 1.448 0 0 0-.531.094c-.175.065-.327.16-.457.285a.918.918 0 0 0-.254.468l-.457-.003c.029-.2.099-.378.21-.532.113-.156.25-.286.415-.39.166-.107.346-.186.539-.239.193-.054.383-.08.57-.078.279 0 .521.056.727.168.206.11.36.267.46.473.105.203.139.448.102.734l-.343 2.043c-.024.138-.04.279-.047.422-.008.14.002.279.03.414l-.003.051h-.477a2.046 2.046 0 0 1-.02-.379c.009-.128.023-.254.044-.379Zm.394-1.703-.05.36h-.864c-.161 0-.332.014-.511.042a2.25 2.25 0 0 0-.516.149 1.2 1.2 0 0 0-.418.293.874.874 0 0 0-.219.469.687.687 0 0 0 .055.43.69.69 0 0 0 .285.28.934.934 0 0 0 .422.102c.23.003.447-.039.652-.125.206-.089.39-.21.551-.367.162-.156.288-.339.379-.547l.16.273c-.07.177-.17.34-.297.489a1.964 1.964 0 0 1-.949.613 1.973 1.973 0 0 1-.562.082 1.402 1.402 0 0 1-.625-.152 1.042 1.042 0 0 1-.426-.41 1.007 1.007 0 0 1-.113-.626c.028-.255.109-.468.242-.64.135-.175.303-.314.504-.418.2-.104.416-.18.648-.227.232-.047.457-.07.676-.07h.976Zm3.422-1.766-.062.383h-2.063l.067-.383h2.058Zm-1.117-1.085h.457l-.734 4.289c-.016.112-.02.22-.012.324a.45.45 0 0 0 .105.258c.06.065.158.099.293.101a1.5 1.5 0 0 0 .192-.012c.065-.01.129-.02.191-.027l-.02.398a1.47 1.47 0 0 1-.234.044c-.078.01-.157.014-.238.011-.219-.002-.384-.056-.496-.16a.74.74 0 0 1-.219-.406 1.619 1.619 0 0 1-.011-.54l.726-4.28Zm2.574 1.085L47.784 34h-.457l.73-4.227h.457Zm-.324-1.218a.323.323 0 0 1 .098-.227.309.309 0 0 1 .226-.094.277.277 0 0 1 .223.09c.06.063.086.138.078.227a.312.312 0 0 1-.101.222.324.324 0 0 1-.227.09.284.284 0 0 1-.297-.309Zm2.14 4.976 1.9-3.754h.484L50.522 34h-.348l.157-.469Zm-.605-3.761.75 3.808V34h-.32l-.887-4.23h.457Zm4.621 4.308a1.52 1.52 0 0 1-.742-.18 1.463 1.463 0 0 1-.508-.468 1.97 1.97 0 0 1-.27-.664 2.43 2.43 0 0 1-.03-.754l.023-.172a2.906 2.906 0 0 1 .64-1.465c.178-.208.385-.374.622-.496.237-.125.5-.186.789-.184.273.003.502.06.687.172.188.11.336.257.446.442.109.184.18.392.214.62.037.23.04.464.012.704l-.039.285h-3.11l.06-.398h2.64l.012-.055a1.53 1.53 0 0 0-.035-.645 1.037 1.037 0 0 0-.305-.515c-.149-.136-.348-.205-.598-.207a1.182 1.182 0 0 0-.625.148c-.182.102-.34.24-.472.414-.13.172-.236.362-.317.57a2.93 2.93 0 0 0-.168.61l-.02.168a2.1 2.1 0 0 0 .005.586c.03.195.09.375.18.539.09.161.213.293.366.394.157.1.347.15.57.153.25.005.476-.045.676-.149.204-.106.39-.247.559-.422l.274.227a1.942 1.942 0 0 1-.43.41 1.742 1.742 0 0 1-.52.25 2.082 2.082 0 0 1-.586.082Zm2.371-.363a.33.33 0 0 1 .102-.23.334.334 0 0 1 .234-.102c.094 0 .17.031.23.094a.3.3 0 0 1 .083.234.335.335 0 0 1-.106.23.327.327 0 0 1-.234.094.3.3 0 0 1-.23-.086.288.288 0 0 1-.079-.234Z" fill="#fff"/>
</svg>
